{
	"asset":{
		"generator":"Khronos glTF Blender I/O v5.0.21",
		"version":"2.0"
	},
	"extensionsUsed":[
		"KHR_materials_specular"
	],
	"scene":0,
	"scenes":[
		{
			"name":"Scene",
			"nodes":[
				16
			]
		}
	],
	"nodes":[
		{
			"mesh":0,
			"name":"Circle_Material.002_0"
		},
		{
			"children":[
				0
			],
			"name":"Circle",
			"rotation":[
				-0.70710688829422,
				0,
				0,
				0.7071066498756409
			],
			"scale":[
				100,
				100.00001525878906,
				100.00001525878906
			],
			"translation":[
				0,
				-3.814697265625e-06,
				0
			]
		},
		{
			"mesh":1,
			"name":"Circle.001_Material_0"
		},
		{
			"children":[
				2
			],
			"name":"Circle.001",
			"rotation":[
				-0.70710688829422,
				0,
				0,
				0.7071066498756409
			],
			"scale":[
				100,
				100.00001525878906,
				100.00001525878906
			],
			"translation":[
				0,
				-3.814697265625e-06,
				0
			]
		},
		{
			"mesh":2,
			"name":"Plane_Material.003_0"
		},
		{
			"children":[
				4
			],
			"name":"Plane",
			"rotation":[
				-0.70710688829422,
				0,
				0,
				0.7071066498756409
			],
			"scale":[
				100,
				100.00001525878906,
				100.00001525878906
			],
			"translation":[
				0,
				-3.814697265625e-06,
				0
			]
		},
		{
			"mesh":3,
			"name":"Plane.001_Material.003_0"
		},
		{
			"children":[
				6
			],
			"name":"Plane.001",
			"rotation":[
				-0.70710688829422,
				0,
				0,
				0.7071066498756409
			],
			"scale":[
				100,
				100.00001525878906,
				100.00001525878906
			],
			"translation":[
				0,
				-3.814697265625e-06,
				0
			]
		},
		{
			"mesh":4,
			"name":"Plane.002_Material.003_0"
		},
		{
			"children":[
				8
			],
			"name":"Plane.002",
			"rotation":[
				-0.70710688829422,
				0,
				0,
				0.7071066498756409
			],
			"scale":[
				100,
				100.00001525878906,
				100.00001525878906
			],
			"translation":[
				0,
				-3.814697265625e-06,
				0
			]
		},
		{
			"mesh":5,
			"name":"Plane.003_Material.003_0"
		},
		{
			"children":[
				10
			],
			"name":"Plane.003",
			"rotation":[
				-0.70710688829422,
				0,
				0,
				0.7071066498756409
			],
			"scale":[
				100,
				100.00001525878906,
				100.00001525878906
			],
			"translation":[
				0,
				-3.814697265625e-06,
				0
			]
		},
		{
			"mesh":6,
			"name":"Sphere_Material.001_0"
		},
		{
			"children":[
				12
			],
			"name":"Sphere",
			"rotation":[
				-0.70710688829422,
				0,
				0,
				0.7071066498756409
			],
			"scale":[
				100,
				100.00001525878906,
				100.00001525878906
			],
			"translation":[
				0,
				-3.814697265625e-06,
				0
			]
		},
		{
			"children":[
				1,
				3,
				5,
				7,
				9,
				11,
				13
			],
			"name":"RootNode",
			"translation":[
				0,
				-3.814697265625e-06,
				0
			]
		},
		{
			"children":[
				14
			],
			"name":"7c0319b5c42a424784e5d933cfa589f1.fbx",
			"rotation":[
				0.70710688829422,
				0,
				0,
				0.7071066498756409
			],
			"scale":[
				0.009999999776482582,
				0.010000000707805157,
				0.010000000707805157
			]
		},
		{
			"children":[
				15
			],
			"name":"Sketchfab_model",
			"rotation":[
				-0.70710688829422,
				0,
				0,
				0.7071066498756409
			],
			"translation":[
				0,
				0.5888482332229614,
				0
			]
		}
	],
	"materials":[
		{
			"doubleSided":true,
			"name":"Material.002",
			"pbrMetallicRoughness":{
				"baseColorFactor":[
					0.46267399191856384,
					0.3035399913787842,
					0.1434050053358078,
					1
				],
				"metallicFactor":0,
				"roughnessFactor":0.9766912460327148
			}
		},
		{
			"doubleSided":true,
			"extensions":{
				"KHR_materials_specular":{
					"specularFactor":0.2179054319858551
				}
			},
			"name":"Material.004",
			"pbrMetallicRoughness":{
				"baseColorFactor":[
					0.10285552591085434,
					0.10285552591085434,
					0.10285552591085434,
					1
				],
				"roughnessFactor":0.20304518938064575
			}
		},
		{
			"doubleSided":true,
			"name":"Material.003",
			"pbrMetallicRoughness":{
				"baseColorTexture":{
					"index":0
				},
				"metallicFactor":0,
				"roughnessFactor":0.8211145401000977
			}
		},
		{
			"doubleSided":true,
			"name":"Material.001",
			"pbrMetallicRoughness":{
				"baseColorFactor":[
					0.8001970052719116,
					0.5212889909744263,
					0.2421029955148697,
					1
				],
				"metallicFactor":0,
				"roughnessFactor":0.9599064588546753
			}
		}
	],
	"meshes":[
		{
			"name":"Circle_Material.002_0",
			"primitives":[
				{
					"attributes":{
						"POSITION":0,
						"NORMAL":1,
						"TEXCOORD_0":2
					},
					"indices":3,
					"material":0
				}
			]
		},
		{
			"name":"Circle.001_Material_0",
			"primitives":[
				{
					"attributes":{
						"POSITION":4,
						"NORMAL":5,
						"TEXCOORD_0":6
					},
					"indices":7,
					"material":1
				}
			]
		},
		{
			"name":"Plane_Material.003_0",
			"primitives":[
				{
					"attributes":{
						"POSITION":8,
						"NORMAL":9,
						"TEXCOORD_0":10
					},
					"indices":11,
					"material":2
				}
			]
		},
		{
			"name":"Plane.001_Material.003_0",
			"primitives":[
				{
					"attributes":{
						"POSITION":12,
						"NORMAL":13,
						"TEXCOORD_0":14
					},
					"indices":15,
					"material":2
				}
			]
		},
		{
			"name":"Plane.002_Material.003_0",
			"primitives":[
				{
					"attributes":{
						"POSITION":16,
						"NORMAL":17,
						"TEXCOORD_0":18
					},
					"indices":15,
					"material":2
				}
			]
		},
		{
			"name":"Plane.003_Material.003_0",
			"primitives":[
				{
					"attributes":{
						"POSITION":19,
						"NORMAL":20,
						"TEXCOORD_0":21
					},
					"indices":22,
					"material":2
				}
			]
		},
		{
			"name":"Sphere_Material.001_0",
			"primitives":[
				{
					"attributes":{
						"POSITION":23,
						"NORMAL":24,
						"TEXCOORD_0":25
					},
					"indices":26,
					"material":3
				}
			]
		}
	],
	"textures":[
		{
			"sampler":0,
			"source":0
		}
	],
	"images":[
		{
			"mimeType":"image/jpeg",
			"name":"Material.003_baseColor",
			"uri":"Material.003_baseColor.jpg"
		}
	],
	"accessors":[
		{
			"bufferView":0,
			"componentType":5126,
			"count":615,
			"max":[
				2.0205795764923096,
				1.2844090461730957,
				4.105688095092773
			],
			"min":[
				-2.0205795764923096,
				-0.36614081263542175,
				0.3378481864929199
			],
			"type":"VEC3"
		},
		{
			"bufferView":1,
			"componentType":5126,
			"count":615,
			"type":"VEC3"
		},
		{
			"bufferView":2,
			"componentType":5126,
			"count":615,
			"type":"VEC2"
		},
		{
			"bufferView":3,
			"componentType":5123,
			"count":2304,
			"type":"SCALAR"
		},
		{
			"bufferView":4,
			"componentType":5126,
			"count":1123,
			"max":[
				2.0302670001983643,
				2.0300087928771973,
				5.0698771476745605
			],
			"min":[
				-2.028764486312866,
				-2.149592638015747,
				-0.0591348260641098
			],
			"type":"VEC3"
		},
		{
			"bufferView":5,
			"componentType":5126,
			"count":1123,
			"type":"VEC3"
		},
		{
			"bufferView":6,
			"componentType":5126,
			"count":1123,
			"type":"VEC2"
		},
		{
			"bufferView":7,
			"componentType":5123,
			"count":4032,
			"type":"SCALAR"
		},
		{
			"bufferView":8,
			"componentType":5126,
			"count":4578,
			"max":[
				0.8844273090362549,
				1.1741044521331787,
				1.1127099990844727
			],
			"min":[
				-0.9060315489768982,
				-0.6173772811889648,
				0.22414171695709229
			],
			"type":"VEC3"
		},
		{
			"bufferView":9,
			"componentType":5126,
			"count":4578,
			"type":"VEC3"
		},
		{
			"bufferView":10,
			"componentType":5126,
			"count":4578,
			"type":"VEC2"
		},
		{
			"bufferView":11,
			"componentType":5123,
			"count":27456,
			"type":"SCALAR"
		},
		{
			"bufferView":12,
			"componentType":5126,
			"count":4578,
			"max":[
				1.5936524868011475,
				0.6270830035209656,
				1.6592764854431152
			],
			"min":[
				0.371858149766922,
				-0.8037852644920349,
				0.6536657810211182
			],
			"type":"VEC3"
		},
		{
			"bufferView":13,
			"componentType":5126,
			"count":4578,
			"type":"VEC3"
		},
		{
			"bufferView":14,
			"componentType":5126,
			"count":4578,
			"type":"VEC2"
		},
		{
			"bufferView":15,
			"componentType":5123,
			"count":27456,
			"type":"SCALAR"
		},
		{
			"bufferView":16,
			"componentType":5126,
			"count":4578,
			"max":[
				0.15584439039230347,
				0.6967290639877319,
				1.4446489810943604
			],
			"min":[
				-1.1764554977416992,
				-0.6440804600715637,
				0.8594207763671875
			],
			"type":"VEC3"
		},
		{
			"bufferView":17,
			"componentType":5126,
			"count":4578,
			"type":"VEC3"
		},
		{
			"bufferView":18,
			"componentType":5126,
			"count":4578,
			"type":"VEC2"
		},
		{
			"bufferView":19,
			"componentType":5126,
			"count":2025,
			"max":[
				1.0473697185516357,
				1.2733656167984009,
				1.5761840343475342
			],
			"min":[
				-1.0597773790359497,
				-0.565045952796936,
				0.4765338897705078
			],
			"type":"VEC3"
		},
		{
			"bufferView":20,
			"componentType":5126,
			"count":2025,
			"type":"VEC3"
		},
		{
			"bufferView":21,
			"componentType":5126,
			"count":2025,
			"type":"VEC2"
		},
		{
			"bufferView":22,
			"componentType":5123,
			"count":11616,
			"type":"SCALAR"
		},
		{
			"bufferView":23,
			"componentType":5126,
			"count":35289,
			"max":[
				1.9166027307510376,
				1.2320712804794312,
				4.015742301940918
			],
			"min":[
				-1.916601538658142,
				-1.5797078609466553,
				0.1814589500427246
			],
			"type":"VEC3"
		},
		{
			"bufferView":24,
			"componentType":5126,
			"count":35289,
			"type":"VEC3"
		},
		{
			"bufferView":25,
			"componentType":5126,
			"count":35289,
			"type":"VEC2"
		},
		{
			"bufferView":26,
			"componentType":5123,
			"count":47616,
			"type":"SCALAR"
		}
	],
	"bufferViews":[
		{
			"buffer":0,
			"byteLength":7380,
			"byteOffset":0,
			"target":34962
		},
		{
			"buffer":0,
			"byteLength":7380,
			"byteOffset":7380,
			"target":34962
		},
		{
			"buffer":0,
			"byteLength":4920,
			"byteOffset":14760,
			"target":34962
		},
		{
			"buffer":0,
			"byteLength":4608,
			"byteOffset":19680,
			"target":34963
		},
		{
			"buffer":0,
			"byteLength":13476,
			"byteOffset":24288,
			"target":34962
		},
		{
			"buffer":0,
			"byteLength":13476,
			"byteOffset":37764,
			"target":34962
		},
		{
			"buffer":0,
			"byteLength":8984,
			"byteOffset":51240,
			"target":34962
		},
		{
			"buffer":0,
			"byteLength":8064,
			"byteOffset":60224,
			"target":34963
		},
		{
			"buffer":0,
			"byteLength":54936,
			"byteOffset":68288,
			"target":34962
		},
		{
			"buffer":0,
			"byteLength":54936,
			"byteOffset":123224,
			"target":34962
		},
		{
			"buffer":0,
			"byteLength":36624,
			"byteOffset":178160,
			"target":34962
		},
		{
			"buffer":0,
			"byteLength":54912,
			"byteOffset":214784,
			"target":34963
		},
		{
			"buffer":0,
			"byteLength":54936,
			"byteOffset":269696,
			"target":34962
		},
		{
			"buffer":0,
			"byteLength":54936,
			"byteOffset":324632,
			"target":34962
		},
		{
			"buffer":0,
			"byteLength":36624,
			"byteOffset":379568,
			"target":34962
		},
		{
			"buffer":0,
			"byteLength":54912,
			"byteOffset":416192,
			"target":34963
		},
		{
			"buffer":0,
			"byteLength":54936,
			"byteOffset":471104,
			"target":34962
		},
		{
			"buffer":0,
			"byteLength":54936,
			"byteOffset":526040,
			"target":34962
		},
		{
			"buffer":0,
			"byteLength":36624,
			"byteOffset":580976,
			"target":34962
		},
		{
			"buffer":0,
			"byteLength":24300,
			"byteOffset":617600,
			"target":34962
		},
		{
			"buffer":0,
			"byteLength":24300,
			"byteOffset":641900,
			"target":34962
		},
		{
			"buffer":0,
			"byteLength":16200,
			"byteOffset":666200,
			"target":34962
		},
		{
			"buffer":0,
			"byteLength":23232,
			"byteOffset":682400,
			"target":34963
		},
		{
			"buffer":0,
			"byteLength":423468,
			"byteOffset":705632,
			"target":34962
		},
		{
			"buffer":0,
			"byteLength":423468,
			"byteOffset":1129100,
			"target":34962
		},
		{
			"buffer":0,
			"byteLength":282312,
			"byteOffset":1552568,
			"target":34962
		},
		{
			"buffer":0,
			"byteLength":95232,
			"byteOffset":1834880,
			"target":34963
		}
	],
	"samplers":[
		{
			"magFilter":9729,
			"minFilter":9987
		}
	],
	"buffers":[
		{
			"byteLength":1930112,
			"uri":"Untitled.bin"
		}
	]
}
